<svg xmlns="http://www.w3.org/2000/svg" xmlns:xlink="http://www.w3.org/1999/xlink" width="100" zoomAndPan="magnify" viewBox="0 0 75 74.999997" height="100" preserveAspectRatio="xMidYMid meet" version="1.0"><defs><clipPath id="c6905fb39d"><path d="M 10.054688 10.054688 L 38 10.054688 L 38 38 L 10.054688 38 Z M 10.054688 10.054688 " clip-rule="nonzero"/></clipPath><clipPath id="8564d49705"><path d="M 37 37 L 64.804688 37 L 64.804688 64.804688 L 37 64.804688 Z M 37 37 " clip-rule="nonzero"/></clipPath></defs><g clip-path="url(#c6905fb39d)"><path fill="#90fdeb" d="M 13.734375 25.917969 C 13.988281 27.125 14.460938 28.261719 15.140625 29.296875 C 15.253906 29.472656 15.246094 29.703125 15.121094 29.871094 L 13.105469 32.523438 L 14.984375 34.398438 L 17.636719 32.386719 C 17.804688 32.261719 18.035156 32.253906 18.207031 32.367188 C 19.230469 33.035156 20.398438 33.523438 21.589844 33.773438 C 21.792969 33.816406 21.949219 33.984375 21.976562 34.191406 L 22.429688 37.480469 L 25.078125 37.480469 L 25.53125 34.191406 C 25.558594 33.984375 25.714844 33.816406 25.921875 33.773438 C 27.125 33.519531 28.261719 33.046875 29.300781 32.367188 C 29.476562 32.253906 29.703125 32.261719 29.871094 32.386719 L 32.523438 34.398438 L 34.402344 32.523438 L 32.386719 29.871094 C 32.261719 29.703125 32.253906 29.472656 32.367188 29.296875 C 33.046875 28.261719 33.519531 27.125 33.773438 25.917969 C 33.816406 25.714844 33.984375 25.558594 34.191406 25.53125 L 37.480469 25.078125 L 37.480469 22.429688 L 34.191406 21.976562 C 33.984375 21.949219 33.816406 21.792969 33.773438 21.585938 C 33.523438 20.398438 33.039062 19.230469 32.367188 18.207031 C 32.253906 18.03125 32.261719 17.804688 32.386719 17.636719 L 34.402344 14.980469 L 32.523438 13.105469 L 29.871094 15.121094 C 29.703125 15.246094 29.476562 15.253906 29.300781 15.140625 C 28.261719 14.460938 27.125 13.984375 25.921875 13.730469 C 25.714844 13.6875 25.558594 13.523438 25.53125 13.3125 L 25.078125 10.027344 L 22.429688 10.027344 L 21.976562 13.3125 C 21.949219 13.523438 21.792969 13.6875 21.589844 13.730469 C 20.398438 13.984375 19.230469 14.46875 18.207031 15.140625 C 18.03125 15.253906 17.804688 15.246094 17.636719 15.121094 L 14.984375 13.105469 L 13.105469 14.980469 L 15.121094 17.636719 C 15.246094 17.804688 15.253906 18.03125 15.140625 18.207031 C 14.46875 19.230469 13.984375 20.398438 13.734375 21.585938 C 13.691406 21.792969 13.523438 21.949219 13.316406 21.976562 L 10.027344 22.429688 L 10.027344 25.078125 L 13.316406 25.53125 C 13.523438 25.558594 13.6875 25.714844 13.734375 25.917969 Z M 23.753906 17.183594 C 27.375 17.183594 30.324219 20.132812 30.324219 23.753906 C 30.324219 27.375 27.375 30.324219 23.753906 30.324219 C 20.132812 30.324219 17.183594 27.375 17.183594 23.753906 C 17.183594 20.132812 20.132812 17.183594 23.753906 17.183594 Z M 23.753906 17.183594 " fill-opacity="1" fill-rule="nonzero"/></g><path fill="#90fdeb" d="M 23.753906 29.332031 C 26.828125 29.332031 29.332031 26.828125 29.332031 23.753906 C 29.332031 20.679688 26.828125 18.179688 23.753906 18.179688 C 20.679688 18.179688 18.179688 20.679688 18.179688 23.753906 C 18.179688 26.828125 20.679688 29.332031 23.753906 29.332031 Z M 23.753906 29.332031 " fill-opacity="1" fill-rule="nonzero"/><path fill="#90fdeb" d="M 51.144531 45.566406 C 48.070312 45.566406 45.566406 48.070312 45.566406 51.144531 C 45.566406 54.21875 48.070312 56.71875 51.144531 56.71875 C 54.21875 56.71875 56.71875 54.21875 56.71875 51.144531 C 56.71875 48.070312 54.21875 45.566406 51.144531 45.566406 Z M 51.144531 45.566406 " fill-opacity="1" fill-rule="nonzero"/><g clip-path="url(#8564d49705)"><path fill="#90fdeb" d="M 61.164062 48.980469 C 60.910156 47.773438 60.4375 46.636719 59.757812 45.601562 C 59.644531 45.425781 59.652344 45.195312 59.777344 45.027344 L 61.792969 42.375 L 59.914062 40.5 L 57.261719 42.511719 C 57.09375 42.640625 56.867188 42.648438 56.691406 42.53125 C 55.667969 41.863281 54.5 41.375 53.308594 41.125 C 53.105469 41.082031 52.949219 40.914062 52.921875 40.707031 L 52.46875 37.417969 L 49.820312 37.417969 L 49.367188 40.707031 C 49.339844 40.914062 49.183594 41.082031 48.976562 41.125 C 47.773438 41.378906 46.636719 41.851562 45.597656 42.53125 C 45.421875 42.644531 45.195312 42.640625 45.027344 42.511719 L 42.375 40.5 L 40.496094 42.375 L 42.511719 45.027344 C 42.636719 45.195312 42.644531 45.425781 42.53125 45.601562 C 41.851562 46.636719 41.378906 47.773438 41.125 48.980469 C 41.082031 49.183594 40.914062 49.339844 40.707031 49.367188 L 37.417969 49.820312 L 37.417969 52.46875 L 40.707031 52.921875 C 40.914062 52.949219 41.082031 53.105469 41.125 53.3125 C 41.375 54.5 41.859375 55.667969 42.53125 56.691406 C 42.644531 56.867188 42.636719 57.09375 42.511719 57.261719 L 40.496094 59.917969 L 42.375 61.792969 L 45.027344 59.777344 C 45.195312 59.652344 45.421875 59.644531 45.597656 59.757812 C 46.636719 60.4375 47.773438 60.914062 48.976562 61.167969 C 49.183594 61.210938 49.339844 61.375 49.367188 61.585938 L 49.820312 64.871094 L 52.46875 64.871094 L 52.921875 61.585938 C 52.949219 61.375 53.105469 61.210938 53.308594 61.167969 C 54.5 60.914062 55.667969 60.429688 56.691406 59.757812 C 56.867188 59.644531 57.09375 59.652344 57.261719 59.777344 L 59.914062 61.792969 L 61.792969 59.917969 L 59.777344 57.261719 C 59.652344 57.09375 59.644531 56.867188 59.757812 56.691406 C 60.429688 55.667969 60.914062 54.5 61.164062 53.3125 C 61.207031 53.105469 61.375 52.949219 61.582031 52.921875 L 64.871094 52.46875 L 64.871094 49.820312 L 61.582031 49.367188 C 61.375 49.339844 61.210938 49.183594 61.164062 48.980469 Z M 51.144531 57.714844 C 47.523438 57.714844 44.574219 54.765625 44.574219 51.144531 C 44.574219 47.523438 47.523438 44.574219 51.144531 44.574219 C 54.765625 44.574219 57.714844 47.523438 57.714844 51.144531 C 57.714844 54.765625 54.765625 57.714844 51.144531 57.714844 Z M 51.144531 57.714844 " fill-opacity="1" fill-rule="nonzero"/></g><path fill="#90fdeb" d="M 52.886719 32.648438 C 53.164062 32.648438 53.382812 32.429688 53.382812 32.152344 L 53.382812 22.960938 C 53.382812 22.6875 53.160156 22.464844 52.886719 22.464844 L 46.820312 22.464844 C 46.621094 22.464844 46.4375 22.34375 46.363281 22.160156 C 46.285156 21.972656 46.328125 21.757812 46.46875 21.617188 L 47.394531 20.695312 C 47.488281 20.601562 47.539062 20.476562 47.539062 20.339844 C 47.539062 20.207031 47.488281 20.082031 47.394531 19.988281 C 47.203125 19.796875 46.875 19.796875 46.683594 19.988281 L 44.113281 22.566406 C 43.941406 22.742188 43.894531 22.910156 43.941406 23.066406 C 43.953125 23.113281 43.960938 23.160156 43.960938 23.210938 C 43.988281 23.222656 44.023438 23.277344 44.066406 23.316406 L 46.683594 25.9375 C 46.882812 26.132812 47.195312 26.132812 47.394531 25.9375 C 47.585938 25.742188 47.585938 25.429688 47.394531 25.238281 L 46.460938 24.304688 C 46.316406 24.164062 46.273438 23.949219 46.351562 23.765625 C 46.429688 23.578125 46.609375 23.457031 46.8125 23.457031 L 51.894531 23.457031 C 52.167969 23.457031 52.390625 23.679688 52.390625 23.953125 L 52.390625 32.152344 C 52.390625 32.429688 52.609375 32.648438 52.886719 32.648438 Z M 52.886719 32.648438 " fill-opacity="1" fill-rule="nonzero"/><path fill="#90fdeb" d="M 27.503906 54.203125 C 27.410156 54.296875 27.359375 54.421875 27.359375 54.558594 C 27.359375 54.691406 27.410156 54.816406 27.503906 54.910156 C 27.695312 55.101562 28.019531 55.101562 28.210938 54.910156 L 30.78125 52.332031 C 30.957031 52.15625 31.003906 51.988281 30.957031 51.832031 C 30.941406 51.785156 30.9375 51.738281 30.9375 51.6875 C 30.90625 51.675781 30.875 51.621094 30.832031 51.582031 L 28.210938 48.960938 C 28.015625 48.765625 27.703125 48.761719 27.503906 48.960938 C 27.3125 49.15625 27.3125 49.46875 27.503906 49.660156 L 28.4375 50.59375 C 28.578125 50.734375 28.621094 50.949219 28.542969 51.132812 C 28.46875 51.320312 28.285156 51.441406 28.085938 51.441406 L 23.003906 51.441406 C 22.730469 51.441406 22.507812 51.21875 22.507812 50.945312 L 22.507812 42.746094 C 22.507812 42.46875 22.289062 42.25 22.011719 42.25 C 21.734375 42.25 21.515625 42.46875 21.515625 42.746094 L 21.515625 51.9375 C 21.515625 52.210938 21.738281 52.433594 22.011719 52.433594 L 28.074219 52.433594 C 28.277344 52.433594 28.457031 52.554688 28.535156 52.738281 C 28.613281 52.925781 28.570312 53.140625 28.425781 53.28125 Z M 27.503906 54.203125 " fill-opacity="1" fill-rule="nonzero"/><path fill="#90fdeb" d="M 58.480469 17.78125 L 59.746094 15.589844 L 58.480469 13.402344 L 55.953125 13.402344 L 54.6875 15.589844 L 55.953125 17.78125 Z M 58.480469 17.78125 " fill-opacity="1" fill-rule="nonzero"/><path fill="#90fdeb" d="M 14.578125 41.800781 C 13.796875 41.800781 13.070312 42.222656 12.683594 42.898438 C 12.292969 43.574219 12.292969 44.410156 12.683594 45.085938 C 13.070312 45.761719 13.796875 46.183594 14.578125 46.183594 C 15.359375 46.183594 16.085938 45.761719 16.476562 45.085938 C 16.867188 44.410156 16.867188 43.574219 16.476562 42.898438 C 16.085938 42.222656 15.359375 41.800781 14.578125 41.800781 Z M 14.578125 41.800781 " fill-opacity="1" fill-rule="nonzero"/><path fill="#90fdeb" d="M 30.472656 60.300781 L 28.648438 63.464844 L 32.300781 63.464844 Z M 30.472656 60.300781 " fill-opacity="1" fill-rule="nonzero"/></svg>