<svg xmlns="http://www.w3.org/2000/svg" xmlns:xlink="http://www.w3.org/1999/xlink" width="100" zoomAndPan="magnify" viewBox="0 0 75 74.999997" height="100" preserveAspectRatio="xMidYMid meet" version="1.0"><defs><clipPath id="3114d9720a"><path d="M 9.371094 9.652344 L 65.621094 9.652344 L 65.621094 65.152344 L 9.371094 65.152344 Z M 9.371094 9.652344 " clip-rule="nonzero"/></clipPath></defs><g clip-path="url(#3114d9720a)"><path fill="#90fdeb" d="M 26.453125 17.488281 L 37.496094 17.488281 C 38.011719 17.488281 38.433594 17.910156 38.433594 18.425781 L 38.433594 26.808594 L 36.558594 26.808594 L 36.558594 19.363281 L 26.453125 19.363281 Z M 48.453125 36.828125 L 57.074219 36.828125 L 57.074219 28.824219 C 57.652344 29.160156 58.367188 29.160156 58.945312 28.824219 L 58.945312 37.765625 C 58.945312 38.285156 58.527344 38.703125 58.007812 38.703125 L 48.453125 38.703125 Z M 38.433594 48.722656 L 38.433594 56.167969 L 48.535156 56.167969 L 48.535156 58.042969 L 37.496094 58.042969 C 36.976562 58.042969 36.558594 57.621094 36.558594 57.105469 L 36.558594 48.722656 Z M 26.539062 38.703125 L 17.917969 38.703125 L 17.917969 46.707031 C 17.339844 46.371094 16.625 46.371094 16.042969 46.707031 L 16.042969 37.765625 C 16.042969 37.25 16.464844 36.828125 16.980469 36.828125 L 26.539062 36.828125 Z M 28.414062 33.71875 L 24.828125 33.71875 C 24.3125 33.71875 23.890625 33.296875 23.890625 32.78125 C 23.890625 32.261719 24.3125 31.84375 24.828125 31.84375 L 28.414062 31.84375 L 28.414062 29.902344 C 28.414062 29.578125 28.542969 29.269531 28.769531 29.042969 C 29 28.8125 29.308594 28.683594 29.632812 28.683594 L 31.574219 28.683594 L 31.574219 25.097656 C 31.574219 24.582031 31.992188 24.160156 32.507812 24.160156 C 33.027344 24.160156 33.445312 24.582031 33.445312 25.097656 L 33.445312 28.683594 L 41.542969 28.683594 L 41.542969 25.097656 C 41.542969 24.582031 41.964844 24.160156 42.480469 24.160156 C 43 24.160156 43.417969 24.582031 43.417969 25.097656 L 43.417969 28.683594 L 43.824219 28.683594 L 46.578125 31.796875 L 46.578125 31.84375 L 50.164062 31.84375 C 50.679688 31.84375 51.101562 32.261719 51.101562 32.78125 C 51.101562 33.296875 50.679688 33.71875 50.164062 33.71875 L 46.578125 33.71875 L 46.578125 41.816406 L 50.164062 41.816406 C 50.679688 41.816406 51.101562 42.234375 51.101562 42.75 C 51.101562 43.269531 50.679688 43.6875 50.164062 43.6875 L 46.578125 43.6875 L 46.578125 45.628906 C 46.578125 45.953125 46.449219 46.261719 46.21875 46.492188 C 45.992188 46.71875 45.683594 46.847656 45.359375 46.847656 L 43.417969 46.847656 L 43.417969 50.433594 C 43.417969 50.949219 43 51.371094 42.480469 51.371094 C 41.964844 51.371094 41.542969 50.949219 41.542969 50.433594 L 41.542969 46.847656 L 33.445312 46.847656 L 33.445312 50.433594 C 33.445312 50.949219 33.027344 51.371094 32.507812 51.371094 C 31.992188 51.371094 31.574219 50.949219 31.574219 50.433594 L 31.574219 46.847656 L 29.632812 46.847656 C 29.308594 46.847656 29 46.71875 28.769531 46.492188 C 28.542969 46.261719 28.414062 45.953125 28.414062 45.628906 L 28.414062 43.6875 L 24.828125 43.6875 C 24.3125 43.6875 23.890625 43.269531 23.890625 42.75 C 23.890625 42.234375 24.3125 41.816406 24.828125 41.816406 L 28.414062 41.816406 Z M 43.417969 32.78125 C 43.417969 32.261719 43 31.84375 42.480469 31.84375 L 32.507812 31.84375 C 31.992188 31.84375 31.574219 32.261719 31.574219 32.78125 L 31.574219 42.75 C 31.574219 43.269531 31.992188 43.6875 32.507812 43.6875 L 42.480469 43.6875 C 43 43.6875 43.417969 43.269531 43.417969 42.75 Z M 41.542969 33.71875 L 41.542969 41.816406 L 33.445312 41.816406 L 33.445312 33.71875 Z M 51.347656 13.5 L 58.007812 9.652344 L 64.671875 13.5 L 58.007812 17.34375 C 58.007812 17.34375 54.113281 15.09375 51.347656 13.5 Z M 65.609375 15.121094 L 65.609375 22.8125 L 58.945312 26.660156 L 58.945312 18.96875 Z M 57.074219 26.660156 L 50.410156 22.8125 L 50.410156 15.121094 L 57.074219 18.96875 Z M 10.320312 13.5 L 16.980469 9.652344 L 23.644531 13.5 L 16.980469 17.34375 Z M 24.578125 15.121094 L 24.578125 22.8125 L 17.917969 26.660156 L 17.917969 18.96875 Z M 16.042969 26.660156 L 9.382812 22.8125 L 9.382812 15.121094 L 16.042969 18.96875 Z M 10.320312 52.175781 L 16.980469 48.332031 L 23.644531 52.175781 L 16.980469 56.023438 Z M 24.578125 53.800781 L 24.578125 61.492188 L 17.917969 65.339844 L 17.917969 57.644531 Z M 16.042969 65.339844 L 9.382812 61.492188 L 9.382812 53.800781 L 16.042969 57.644531 Z M 51.347656 52.175781 L 58.007812 48.332031 L 64.671875 52.175781 L 58.007812 56.023438 C 58.007812 56.023438 54.050781 53.738281 51.347656 52.175781 Z M 65.609375 53.800781 L 65.609375 61.492188 L 58.945312 65.339844 L 58.945312 57.644531 Z M 57.074219 65.339844 L 50.410156 61.492188 L 50.410156 53.800781 L 57.074219 57.644531 Z M 57.074219 65.339844 " fill-opacity="1" fill-rule="evenodd"/></g></svg>