<svg xmlns="http://www.w3.org/2000/svg" xmlns:xlink="http://www.w3.org/1999/xlink" width="100" zoomAndPan="magnify" viewBox="0 0 75 74.999997" height="100" preserveAspectRatio="xMidYMid meet" version="1.0"><defs><clipPath id="f5f766c9c3"><path d="M 24 40 L 51 40 L 51 64 L 24 64 Z M 24 40 " clip-rule="nonzero"/></clipPath><clipPath id="8b02bd3c06"><path d="M 24 10.75 L 51 10.75 L 51 35 L 24 35 Z M 24 10.75 " clip-rule="nonzero"/></clipPath><clipPath id="1201c4e8a9"><path d="M 20 10.75 L 55 10.75 L 55 64 L 20 64 Z M 20 10.75 " clip-rule="nonzero"/></clipPath><clipPath id="40d85fe6b0"><path d="M 10.683594 18 L 20 18 L 20 20 L 10.683594 20 Z M 10.683594 18 " clip-rule="nonzero"/></clipPath><clipPath id="331416d83e"><path d="M 10.683594 23 L 20 23 L 20 25 L 10.683594 25 Z M 10.683594 23 " clip-rule="nonzero"/></clipPath><clipPath id="ac19597c5e"><path d="M 55 18 L 64.683594 18 L 64.683594 20 L 55 20 Z M 55 18 " clip-rule="nonzero"/></clipPath><clipPath id="78588b649b"><path d="M 55 23 L 64.683594 23 L 64.683594 25 L 55 25 Z M 55 23 " clip-rule="nonzero"/></clipPath><clipPath id="de8810522d"><path d="M 10.683594 13 L 20 13 L 20 15 L 10.683594 15 Z M 10.683594 13 " clip-rule="nonzero"/></clipPath><clipPath id="cf2897dc8f"><path d="M 10.683594 28 L 20 28 L 20 30 L 10.683594 30 Z M 10.683594 28 " clip-rule="nonzero"/></clipPath><clipPath id="28eb36e59e"><path d="M 55 13 L 64.683594 13 L 64.683594 15 L 55 15 Z M 55 13 " clip-rule="nonzero"/></clipPath><clipPath id="d3ab816d4d"><path d="M 55 28 L 64.683594 28 L 64.683594 30 L 55 30 Z M 55 28 " clip-rule="nonzero"/></clipPath><clipPath id="d16765a5a1"><path d="M 10.683594 55 L 20 55 L 20 57 L 10.683594 57 Z M 10.683594 55 " clip-rule="nonzero"/></clipPath><clipPath id="d53d7f1920"><path d="M 10.683594 50 L 20 50 L 20 52 L 10.683594 52 Z M 10.683594 50 " clip-rule="nonzero"/></clipPath><clipPath id="cc9e268697"><path d="M 55 55 L 64.683594 55 L 64.683594 57 L 55 57 Z M 55 55 " clip-rule="nonzero"/></clipPath><clipPath id="7b48daa2ce"><path d="M 55 50 L 64.683594 50 L 64.683594 52 L 55 52 Z M 55 50 " clip-rule="nonzero"/></clipPath><clipPath id="0a481e58c8"><path d="M 10.683594 60 L 20 60 L 20 62 L 10.683594 62 Z M 10.683594 60 " clip-rule="nonzero"/></clipPath><clipPath id="eb76b723db"><path d="M 10.683594 45 L 20 45 L 20 47 L 10.683594 47 Z M 10.683594 45 " clip-rule="nonzero"/></clipPath><clipPath id="e1764d1065"><path d="M 55 60 L 64.683594 60 L 64.683594 62 L 55 62 Z M 55 60 " clip-rule="nonzero"/></clipPath><clipPath id="a1b922d6ed"><path d="M 55 45 L 64.683594 45 L 64.683594 47 L 55 47 Z M 55 45 " clip-rule="nonzero"/></clipPath></defs><g clip-path="url(#f5f766c9c3)"><path fill="#90fdeb" d="M 48.15625 40.582031 C 48.019531 40.449219 47.859375 40.382812 47.671875 40.382812 L 27.320312 40.382812 C 27.132812 40.382812 26.972656 40.449219 26.835938 40.582031 L 24.433594 42.988281 C 24.300781 43.121094 24.234375 43.28125 24.234375 43.46875 L 24.234375 63.558594 C 24.234375 63.746094 24.300781 63.90625 24.433594 64.039062 C 24.566406 64.171875 24.730469 64.238281 24.917969 64.238281 L 50.074219 64.238281 C 50.261719 64.238281 50.421875 64.171875 50.554688 64.039062 C 50.691406 63.90625 50.757812 63.746094 50.757812 63.558594 L 50.757812 43.46875 C 50.757812 43.28125 50.691406 43.121094 50.558594 42.988281 Z M 49.394531 62.878906 L 25.597656 62.878906 L 25.597656 43.75 L 27.601562 41.746094 L 47.390625 41.746094 L 49.394531 43.75 Z M 49.394531 62.878906 " fill-opacity="1" fill-rule="nonzero"/></g><g clip-path="url(#8b02bd3c06)"><path fill="#90fdeb" d="M 26.835938 34.402344 C 26.972656 34.535156 27.132812 34.601562 27.320312 34.601562 L 47.671875 34.601562 C 47.859375 34.601562 48.019531 34.535156 48.15625 34.402344 L 50.558594 32 C 50.691406 31.867188 50.757812 31.707031 50.757812 31.515625 L 50.757812 11.425781 C 50.757812 11.238281 50.691406 11.078125 50.558594 10.945312 C 50.421875 10.8125 50.261719 10.746094 50.074219 10.746094 L 24.917969 10.746094 C 24.730469 10.746094 24.566406 10.8125 24.433594 10.945312 C 24.300781 11.078125 24.234375 11.238281 24.234375 11.425781 L 24.234375 31.515625 C 24.234375 31.707031 24.300781 31.867188 24.433594 32 Z M 25.597656 12.109375 L 49.394531 12.109375 L 49.394531 31.238281 L 47.390625 33.238281 L 27.601562 33.238281 L 25.597656 31.238281 Z M 25.597656 12.109375 " fill-opacity="1" fill-rule="nonzero"/></g><path fill="#90fdeb" d="M 28.421875 32.191406 L 29.78125 32.191406 L 29.78125 23.355469 L 33.121094 23.355469 L 33.121094 32.191406 L 34.484375 32.191406 L 34.484375 28.050781 L 37.75 28.050781 L 37.75 32.191406 L 39.113281 32.191406 L 39.113281 28.050781 L 42.382812 28.050781 L 42.382812 32.191406 L 46.957031 32.191406 L 48.320312 30.828125 L 43.746094 30.828125 L 43.746094 28.050781 L 48.347656 28.050781 L 48.347656 26.6875 L 34.484375 26.6875 L 34.484375 23.355469 L 48.347656 23.355469 L 48.347656 21.992188 L 46.570312 21.992188 L 46.570312 13.15625 L 45.210938 13.15625 L 45.210938 21.992188 L 41.785156 21.992188 L 41.785156 13.15625 L 40.425781 13.15625 L 40.425781 17.292969 L 37.199219 17.292969 L 37.199219 13.15625 L 35.835938 13.15625 L 35.835938 17.292969 L 32.609375 17.292969 L 32.609375 13.15625 L 26.644531 13.15625 L 26.644531 14.519531 L 31.246094 14.519531 L 31.246094 17.292969 L 26.644531 17.292969 L 26.644531 18.65625 L 40.425781 18.65625 L 40.425781 21.992188 L 26.644531 21.992188 L 26.644531 23.355469 L 28.421875 23.355469 Z M 28.421875 32.191406 " fill-opacity="1" fill-rule="nonzero"/><g clip-path="url(#1201c4e8a9)"><path fill="#90fdeb" d="M 53.664062 10.746094 C 53.476562 10.746094 53.316406 10.8125 53.183594 10.945312 C 53.050781 11.078125 52.984375 11.238281 52.984375 11.429688 L 52.984375 32.796875 C 52.953125 32.816406 52.929688 32.835938 52.90625 32.859375 L 48.953125 36.8125 L 26.039062 36.8125 L 22.085938 32.859375 C 22.0625 32.835938 22.035156 32.816406 22.007812 32.796875 L 22.007812 11.429688 C 22.007812 11.238281 21.941406 11.078125 21.808594 10.945312 C 21.675781 10.8125 21.515625 10.746094 21.328125 10.746094 C 21.140625 10.746094 20.980469 10.8125 20.847656 10.945312 C 20.714844 11.078125 20.648438 11.238281 20.648438 11.429688 L 20.648438 33.347656 L 24.792969 37.492188 L 20.648438 41.636719 L 20.648438 63.558594 C 20.648438 63.746094 20.714844 63.90625 20.847656 64.039062 C 20.980469 64.171875 21.140625 64.238281 21.328125 64.238281 C 21.515625 64.238281 21.675781 64.171875 21.808594 64.039062 C 21.941406 63.90625 22.007812 63.746094 22.007812 63.558594 L 22.007812 42.191406 C 22.035156 42.171875 22.0625 42.148438 22.085938 42.125 L 26.039062 38.175781 L 48.953125 38.175781 L 52.90625 42.125 C 52.929688 42.148438 52.953125 42.171875 52.984375 42.191406 L 52.984375 63.558594 C 52.984375 63.746094 53.050781 63.90625 53.183594 64.039062 C 53.316406 64.171875 53.476562 64.238281 53.664062 64.238281 C 53.851562 64.238281 54.011719 64.171875 54.144531 64.039062 C 54.277344 63.90625 54.34375 63.746094 54.34375 63.558594 L 54.34375 41.636719 L 50.199219 37.492188 L 54.34375 33.347656 L 54.34375 11.429688 C 54.34375 11.238281 54.277344 11.078125 54.144531 10.945312 C 54.011719 10.8125 53.851562 10.746094 53.664062 10.746094 Z M 53.664062 10.746094 " fill-opacity="1" fill-rule="nonzero"/></g><g clip-path="url(#40d85fe6b0)"><path fill="#90fdeb" d="M 10.722656 19.078125 C 10.722656 19.265625 10.789062 19.425781 10.921875 19.558594 C 11.054688 19.691406 11.214844 19.757812 11.402344 19.757812 L 19.601562 19.757812 L 19.601562 18.398438 L 11.402344 18.398438 C 11.214844 18.398438 11.054688 18.464844 10.921875 18.597656 C 10.789062 18.730469 10.722656 18.890625 10.722656 19.078125 Z M 10.722656 19.078125 " fill-opacity="1" fill-rule="nonzero"/></g><g clip-path="url(#331416d83e)"><path fill="#90fdeb" d="M 10.722656 23.867188 C 10.722656 24.054688 10.789062 24.214844 10.921875 24.347656 C 11.054688 24.480469 11.214844 24.546875 11.402344 24.546875 L 19.601562 24.546875 L 19.601562 23.183594 L 11.402344 23.183594 C 11.214844 23.183594 11.054688 23.25 10.921875 23.382812 C 10.789062 23.519531 10.722656 23.679688 10.722656 23.867188 Z M 10.722656 23.867188 " fill-opacity="1" fill-rule="nonzero"/></g><g clip-path="url(#ac19597c5e)"><path fill="#90fdeb" d="M 63.589844 18.398438 L 55.390625 18.398438 L 55.390625 19.757812 L 63.589844 19.757812 C 63.777344 19.757812 63.9375 19.691406 64.070312 19.558594 C 64.203125 19.425781 64.269531 19.265625 64.269531 19.078125 C 64.269531 18.890625 64.203125 18.730469 64.070312 18.597656 C 63.9375 18.464844 63.777344 18.398438 63.589844 18.398438 Z M 63.589844 18.398438 " fill-opacity="1" fill-rule="nonzero"/></g><g clip-path="url(#78588b649b)"><path fill="#90fdeb" d="M 63.589844 23.183594 L 55.390625 23.183594 L 55.390625 24.546875 L 63.589844 24.546875 C 63.777344 24.546875 63.9375 24.480469 64.070312 24.347656 C 64.203125 24.214844 64.269531 24.054688 64.269531 23.867188 C 64.269531 23.679688 64.203125 23.519531 64.070312 23.382812 C 63.9375 23.25 63.777344 23.183594 63.589844 23.183594 Z M 63.589844 23.183594 " fill-opacity="1" fill-rule="nonzero"/></g><g clip-path="url(#de8810522d)"><path fill="#90fdeb" d="M 10.722656 14.21875 C 10.722656 14.410156 10.789062 14.570312 10.921875 14.703125 C 11.054688 14.835938 11.214844 14.902344 11.402344 14.902344 L 19.601562 14.902344 L 19.601562 13.539062 L 11.402344 13.539062 C 11.214844 13.539062 11.054688 13.605469 10.921875 13.738281 C 10.789062 13.871094 10.722656 14.03125 10.722656 14.21875 Z M 10.722656 14.21875 " fill-opacity="1" fill-rule="nonzero"/></g><g clip-path="url(#cf2897dc8f)"><path fill="#90fdeb" d="M 10.722656 28.726562 C 10.722656 28.914062 10.789062 29.074219 10.921875 29.207031 C 11.054688 29.339844 11.214844 29.40625 11.402344 29.40625 L 19.601562 29.40625 L 19.601562 28.042969 L 11.402344 28.042969 C 11.214844 28.042969 11.054688 28.109375 10.921875 28.242188 C 10.789062 28.375 10.722656 28.539062 10.722656 28.726562 Z M 10.722656 28.726562 " fill-opacity="1" fill-rule="nonzero"/></g><g clip-path="url(#28eb36e59e)"><path fill="#90fdeb" d="M 64.269531 14.21875 C 64.269531 14.03125 64.203125 13.871094 64.070312 13.738281 C 63.9375 13.605469 63.777344 13.539062 63.589844 13.539062 L 55.390625 13.539062 L 55.390625 14.902344 L 63.589844 14.902344 C 63.777344 14.902344 63.9375 14.835938 64.070312 14.703125 C 64.203125 14.570312 64.269531 14.410156 64.269531 14.21875 Z M 64.269531 14.21875 " fill-opacity="1" fill-rule="nonzero"/></g><g clip-path="url(#d3ab816d4d)"><path fill="#90fdeb" d="M 63.589844 28.042969 L 55.390625 28.042969 L 55.390625 29.40625 L 63.589844 29.40625 C 63.777344 29.40625 63.9375 29.339844 64.070312 29.207031 C 64.203125 29.074219 64.269531 28.914062 64.269531 28.726562 C 64.269531 28.539062 64.203125 28.375 64.070312 28.242188 C 63.9375 28.109375 63.777344 28.042969 63.589844 28.042969 Z M 63.589844 28.042969 " fill-opacity="1" fill-rule="nonzero"/></g><g clip-path="url(#d16765a5a1)"><path fill="#90fdeb" d="M 10.722656 55.90625 C 10.722656 56.09375 10.789062 56.257812 10.921875 56.390625 C 11.054688 56.523438 11.214844 56.589844 11.402344 56.589844 L 19.601562 56.589844 L 19.601562 55.226562 L 11.402344 55.226562 C 11.214844 55.226562 11.054688 55.292969 10.921875 55.425781 C 10.789062 55.558594 10.722656 55.71875 10.722656 55.90625 Z M 10.722656 55.90625 " fill-opacity="1" fill-rule="nonzero"/></g><g clip-path="url(#d53d7f1920)"><path fill="#90fdeb" d="M 10.722656 51.121094 C 10.722656 51.308594 10.789062 51.46875 10.921875 51.601562 C 11.054688 51.734375 11.214844 51.800781 11.402344 51.800781 L 19.601562 51.800781 L 19.601562 50.4375 L 11.402344 50.4375 C 11.214844 50.4375 11.054688 50.503906 10.921875 50.636719 C 10.789062 50.769531 10.722656 50.929688 10.722656 51.121094 Z M 10.722656 51.121094 " fill-opacity="1" fill-rule="nonzero"/></g><g clip-path="url(#cc9e268697)"><path fill="#90fdeb" d="M 63.589844 55.226562 L 55.390625 55.226562 L 55.390625 56.589844 L 63.589844 56.589844 C 63.777344 56.589844 63.9375 56.523438 64.070312 56.390625 C 64.203125 56.257812 64.269531 56.09375 64.269531 55.90625 C 64.269531 55.71875 64.203125 55.558594 64.070312 55.425781 C 63.9375 55.292969 63.777344 55.226562 63.589844 55.226562 Z M 63.589844 55.226562 " fill-opacity="1" fill-rule="nonzero"/></g><g clip-path="url(#7b48daa2ce)"><path fill="#90fdeb" d="M 63.589844 50.4375 L 55.390625 50.4375 L 55.390625 51.800781 L 63.589844 51.800781 C 63.777344 51.800781 63.9375 51.734375 64.070312 51.601562 C 64.203125 51.46875 64.269531 51.308594 64.269531 51.121094 C 64.269531 50.929688 64.203125 50.769531 64.070312 50.636719 C 63.9375 50.503906 63.777344 50.4375 63.589844 50.4375 Z M 63.589844 50.4375 " fill-opacity="1" fill-rule="nonzero"/></g><g clip-path="url(#0a481e58c8)"><path fill="#90fdeb" d="M 10.722656 60.765625 C 10.722656 60.953125 10.789062 61.113281 10.921875 61.246094 C 11.054688 61.378906 11.214844 61.445312 11.402344 61.445312 L 19.601562 61.445312 L 19.601562 60.085938 L 11.402344 60.085938 C 11.214844 60.085938 11.054688 60.152344 10.921875 60.285156 C 10.789062 60.417969 10.722656 60.578125 10.722656 60.765625 Z M 10.722656 60.765625 " fill-opacity="1" fill-rule="nonzero"/></g><g clip-path="url(#eb76b723db)"><path fill="#90fdeb" d="M 10.722656 46.261719 C 10.722656 46.449219 10.789062 46.609375 10.921875 46.742188 C 11.054688 46.875 11.214844 46.941406 11.402344 46.941406 L 19.601562 46.941406 L 19.601562 45.578125 L 11.402344 45.578125 C 11.214844 45.578125 11.054688 45.644531 10.921875 45.777344 C 10.789062 45.910156 10.722656 46.074219 10.722656 46.261719 Z M 10.722656 46.261719 " fill-opacity="1" fill-rule="nonzero"/></g><g clip-path="url(#e1764d1065)"><path fill="#90fdeb" d="M 63.589844 60.085938 L 55.390625 60.085938 L 55.390625 61.445312 L 63.589844 61.445312 C 63.777344 61.445312 63.9375 61.378906 64.070312 61.246094 C 64.203125 61.113281 64.269531 60.953125 64.269531 60.765625 C 64.269531 60.578125 64.203125 60.417969 64.070312 60.285156 C 63.9375 60.152344 63.777344 60.085938 63.589844 60.085938 Z M 63.589844 60.085938 " fill-opacity="1" fill-rule="nonzero"/></g><g clip-path="url(#a1b922d6ed)"><path fill="#90fdeb" d="M 63.589844 45.578125 L 55.390625 45.578125 L 55.390625 46.941406 L 63.589844 46.941406 C 63.777344 46.941406 63.9375 46.875 64.070312 46.742188 C 64.203125 46.609375 64.269531 46.449219 64.269531 46.261719 C 64.269531 46.074219 64.203125 45.910156 64.070312 45.777344 C 63.9375 45.644531 63.777344 45.578125 63.589844 45.578125 Z M 63.589844 45.578125 " fill-opacity="1" fill-rule="nonzero"/></g><path fill="#90fdeb" d="M 37.496094 44.289062 C 36.96875 44.289062 36.445312 44.339844 35.929688 44.441406 C 35.414062 44.542969 34.910156 44.695312 34.425781 44.898438 C 33.9375 45.101562 33.476562 45.347656 33.039062 45.640625 C 32.597656 45.933594 32.195312 46.265625 31.820312 46.636719 C 31.449219 47.011719 31.117188 47.414062 30.824219 47.855469 C 30.53125 48.292969 30.285156 48.753906 30.082031 49.242188 C 29.878906 49.726562 29.726562 50.230469 29.625 50.746094 C 29.523438 51.261719 29.472656 51.785156 29.472656 52.3125 C 29.472656 52.839844 29.523438 53.359375 29.625 53.878906 C 29.726562 54.394531 29.878906 54.898438 30.082031 55.382812 C 30.285156 55.871094 30.53125 56.332031 30.824219 56.769531 C 31.117188 57.207031 31.449219 57.613281 31.820312 57.988281 C 32.195312 58.359375 32.597656 58.691406 33.039062 58.984375 C 33.476562 59.277344 33.9375 59.523438 34.425781 59.726562 C 34.910156 59.929688 35.414062 60.082031 35.929688 60.183594 C 36.445312 60.285156 36.96875 60.335938 37.496094 60.335938 C 38.023438 60.335938 38.542969 60.285156 39.0625 60.183594 C 39.578125 60.082031 40.082031 59.929688 40.566406 59.726562 C 41.054688 59.523438 41.515625 59.277344 41.953125 58.984375 C 42.394531 58.691406 42.796875 58.359375 43.171875 57.988281 C 43.542969 57.613281 43.875 57.207031 44.167969 56.769531 C 44.460938 56.332031 44.707031 55.871094 44.910156 55.382812 C 45.113281 54.898438 45.265625 54.394531 45.367188 53.878906 C 45.46875 53.359375 45.519531 52.839844 45.519531 52.3125 C 45.519531 51.785156 45.46875 51.265625 45.367188 50.746094 C 45.261719 50.230469 45.109375 49.730469 44.90625 49.242188 C 44.707031 48.757812 44.457031 48.292969 44.164062 47.855469 C 43.871094 47.417969 43.539062 47.011719 43.167969 46.640625 C 42.796875 46.269531 42.390625 45.933594 41.953125 45.640625 C 41.515625 45.351562 41.050781 45.101562 40.566406 44.902344 C 40.078125 44.699219 39.578125 44.546875 39.0625 44.441406 C 38.542969 44.339844 38.023438 44.289062 37.496094 44.289062 Z M 37.496094 45.648438 C 37.953125 45.648438 38.410156 45.695312 38.859375 45.789062 C 39.089844 46.058594 39.269531 46.355469 39.402344 46.683594 C 39.535156 47.011719 39.609375 47.355469 39.628906 47.707031 C 39.648438 48.0625 39.609375 48.40625 39.515625 48.75 C 39.417969 49.089844 39.269531 49.40625 39.070312 49.695312 C 38.570312 49.394531 38.03125 49.25 37.445312 49.257812 C 36.863281 49.269531 36.328125 49.433594 35.835938 49.75 C 35.25 49.300781 34.589844 49.015625 33.859375 48.886719 C 33.132812 48.757812 32.414062 48.800781 31.707031 49.019531 C 31.996094 48.507812 32.347656 48.042969 32.761719 47.625 C 33.175781 47.207031 33.636719 46.851562 34.148438 46.554688 C 34.65625 46.257812 35.195312 46.035156 35.761719 45.878906 C 36.328125 45.726562 36.90625 45.648438 37.496094 45.648438 Z M 39.1875 52.3125 C 39.1875 52.535156 39.144531 52.753906 39.058594 52.960938 C 38.972656 53.167969 38.851562 53.351562 38.691406 53.507812 C 38.535156 53.667969 38.351562 53.789062 38.144531 53.875 C 37.9375 53.960938 37.71875 54.003906 37.496094 54.003906 C 37.273438 54.003906 37.054688 53.960938 36.847656 53.875 C 36.640625 53.789062 36.457031 53.667969 36.300781 53.507812 C 36.140625 53.351562 36.019531 53.167969 35.933594 52.960938 C 35.847656 52.753906 35.804688 52.535156 35.804688 52.3125 C 35.804688 52.089844 35.847656 51.871094 35.933594 51.664062 C 36.019531 51.457031 36.140625 51.273438 36.300781 51.117188 C 36.457031 50.957031 36.640625 50.835938 36.847656 50.75 C 37.054688 50.664062 37.273438 50.621094 37.496094 50.621094 C 37.71875 50.621094 37.9375 50.664062 38.144531 50.75 C 38.351562 50.835938 38.53125 50.957031 38.691406 51.117188 C 38.851562 51.273438 38.972656 51.457031 39.058594 51.664062 C 39.144531 51.871094 39.1875 52.089844 39.1875 52.3125 Z M 34.199219 58.097656 C 33.585938 57.75 33.042969 57.316406 32.570312 56.792969 C 32.09375 56.273438 31.710938 55.691406 31.421875 55.050781 C 31.132812 54.40625 30.949219 53.738281 30.871094 53.035156 C 30.796875 52.335938 30.828125 51.640625 30.972656 50.949219 C 31.242188 50.71875 31.539062 50.539062 31.867188 50.410156 C 32.195312 50.277344 32.539062 50.203125 32.890625 50.183594 C 33.242188 50.164062 33.589844 50.199219 33.929688 50.296875 C 34.273438 50.390625 34.589844 50.539062 34.878906 50.738281 C 34.578125 51.238281 34.433594 51.777344 34.441406 52.363281 C 34.453125 52.945312 34.617188 53.480469 34.933594 53.96875 C 34.304688 54.789062 33.992188 55.710938 33.996094 56.742188 C 33.996094 57.207031 34.0625 57.65625 34.199219 58.097656 Z M 37.496094 58.976562 C 37.039062 58.976562 36.582031 58.929688 36.132812 58.835938 C 35.902344 58.566406 35.722656 58.269531 35.589844 57.941406 C 35.457031 57.613281 35.382812 57.269531 35.363281 56.917969 C 35.34375 56.5625 35.382812 56.21875 35.476562 55.875 C 35.574219 55.535156 35.722656 55.21875 35.921875 54.925781 C 36.421875 55.230469 36.960938 55.375 37.546875 55.367188 C 38.128906 55.355469 38.664062 55.191406 39.15625 54.875 C 39.742188 55.324219 40.402344 55.609375 41.132812 55.738281 C 41.859375 55.867188 42.578125 55.824219 43.285156 55.605469 C 42.996094 56.113281 42.640625 56.578125 42.230469 57 C 41.816406 57.417969 41.355469 57.773438 40.84375 58.070312 C 40.335938 58.367188 39.796875 58.589844 39.230469 58.742188 C 38.664062 58.898438 38.085938 58.976562 37.496094 58.976562 Z M 44.019531 53.675781 C 43.75 53.902344 43.453125 54.085938 43.121094 54.214844 C 42.792969 54.347656 42.453125 54.421875 42.101562 54.441406 C 41.746094 54.460938 41.402344 54.421875 41.0625 54.328125 C 40.71875 54.234375 40.402344 54.085938 40.113281 53.886719 C 40.414062 53.386719 40.558594 52.847656 40.550781 52.261719 C 40.539062 51.679688 40.375 51.144531 40.058594 50.65625 C 40.6875 49.835938 41 48.914062 40.996094 47.882812 C 40.996094 47.417969 40.929688 46.96875 40.792969 46.527344 C 41.40625 46.875 41.949219 47.308594 42.421875 47.828125 C 42.898438 48.351562 43.28125 48.933594 43.570312 49.574219 C 43.859375 50.21875 44.042969 50.886719 44.121094 51.589844 C 44.195312 52.289062 44.164062 52.984375 44.019531 53.675781 Z M 44.019531 53.675781 " fill-opacity="1" fill-rule="nonzero"/></svg>