<svg xmlns="http://www.w3.org/2000/svg" xmlns:xlink="http://www.w3.org/1999/xlink" width="100" zoomAndPan="magnify" viewBox="0 0 75 74.999997" height="100" preserveAspectRatio="xMidYMid meet" version="1.0"><defs><clipPath id="2f6f174da5"><path d="M 6.070312 10 L 69 10 L 69 64.75 L 6.070312 64.75 Z M 6.070312 10 " clip-rule="nonzero"/></clipPath></defs><g clip-path="url(#2f6f174da5)"><path fill="#90fdeb" d="M 68.535156 28.527344 L 66.765625 27.390625 C 66.832031 26.65625 66.824219 25.914062 66.742188 25.179688 L 68.488281 24.007812 C 68.800781 23.796875 68.917969 23.398438 68.769531 23.054688 L 67.148438 19.25 C 67 18.902344 66.628906 18.710938 66.265625 18.792969 L 64.210938 19.238281 C 63.734375 18.671875 63.207031 18.152344 62.632812 17.691406 L 63.035156 15.628906 C 63.105469 15.261719 62.90625 14.894531 62.558594 14.753906 L 58.722656 13.210938 C 58.375 13.070312 57.976562 13.199219 57.773438 13.511719 L 56.636719 15.28125 C 56.566406 15.273438 56.5 15.273438 56.429688 15.269531 L 56.429688 13.394531 C 56.429688 11.523438 54.90625 10.003906 53.035156 10.003906 L 25.378906 10.003906 C 23.507812 10.003906 21.988281 11.523438 21.988281 13.394531 L 21.988281 17.269531 C 18.625 18.761719 15.757812 21.152344 13.667969 24.210938 C 11.421875 27.492188 10.234375 31.328125 10.234375 35.296875 L 10.234375 37.941406 L 6.546875 43.324219 C 6.109375 43.960938 5.984375 44.695312 6.1875 45.445312 C 6.386719 46.195312 6.867188 46.765625 7.566406 47.101562 L 10.339844 48.414062 L 11.402344 54.355469 C 11.925781 57.292969 14.472656 59.425781 17.457031 59.425781 L 22.144531 59.425781 C 22.882812 59.425781 23.496094 59.910156 23.664062 60.628906 L 24.542969 64.402344 C 24.625 64.753906 24.9375 65.003906 25.304688 65.003906 L 43.84375 65.003906 C 44.082031 65.003906 44.308594 64.894531 44.457031 64.710938 C 44.605469 64.523438 44.660156 64.277344 44.605469 64.046875 L 43.601562 59.746094 C 42.511719 55.074219 43.21875 52.117188 46.304688 48.445312 C 47.640625 46.859375 48.753906 44.917969 49.558594 42.800781 L 53.035156 42.800781 C 54.90625 42.800781 56.425781 41.28125 56.425781 39.410156 L 56.425781 37.539062 C 56.574219 37.527344 56.71875 37.515625 56.867188 37.5 L 58.039062 39.246094 C 58.25 39.554688 58.648438 39.675781 58.992188 39.527344 L 62.796875 37.90625 C 63.144531 37.757812 63.335938 37.386719 63.253906 37.019531 L 62.808594 34.964844 C 63.375 34.492188 63.894531 33.960938 64.355469 33.386719 L 66.417969 33.792969 C 66.785156 33.863281 67.152344 33.664062 67.292969 33.316406 L 68.835938 29.480469 C 68.976562 29.132812 68.847656 28.734375 68.535156 28.527344 Z M 45.109375 47.4375 C 41.699219 51.5 40.875 54.929688 42.082031 60.097656 L 42.859375 63.441406 L 25.925781 63.441406 L 25.1875 60.273438 C 24.855469 58.851562 23.605469 57.859375 22.144531 57.859375 L 17.457031 57.859375 C 15.199219 57.859375 13.339844 56.304688 12.945312 54.082031 L 11.808594 47.738281 C 11.765625 47.492188 11.605469 47.277344 11.375 47.171875 L 8.238281 45.683594 C 7.953125 45.550781 7.777344 45.339844 7.695312 45.035156 C 7.613281 44.734375 7.660156 44.460938 7.835938 44.203125 L 11.660156 38.621094 C 11.75 38.492188 11.796875 38.339844 11.796875 38.179688 L 11.796875 35.292969 C 11.796875 28.320312 15.761719 22.042969 21.988281 18.992188 L 21.988281 39.40625 C 21.988281 41.277344 23.507812 42.796875 25.378906 42.796875 L 33.335938 42.796875 L 33.335938 47.507812 C 33.335938 47.808594 33.503906 48.082031 33.773438 48.210938 C 33.882812 48.265625 34 48.289062 34.117188 48.289062 C 34.285156 48.289062 34.457031 48.234375 34.597656 48.125 L 41.414062 42.796875 L 47.875 42.796875 C 47.160156 44.535156 46.214844 46.121094 45.109375 47.4375 Z M 53.035156 41.238281 L 41.144531 41.238281 C 40.96875 41.238281 40.800781 41.296875 40.664062 41.402344 L 34.898438 45.90625 L 34.898438 42.019531 C 34.898438 41.585938 34.546875 41.238281 34.117188 41.238281 L 25.378906 41.238281 C 24.371094 41.238281 23.550781 40.417969 23.550781 39.410156 L 23.550781 13.394531 C 23.550781 12.386719 24.371094 11.566406 25.378906 11.566406 L 53.035156 11.566406 C 54.046875 11.566406 54.863281 12.386719 54.863281 13.394531 L 54.863281 15.265625 C 54.71875 15.277344 54.570312 15.289062 54.425781 15.304688 L 53.253906 13.558594 C 53.042969 13.25 52.644531 13.128906 52.296875 13.277344 L 48.492188 14.898438 C 48.148438 15.046875 47.957031 15.417969 48.035156 15.785156 L 48.484375 17.839844 C 47.914062 18.3125 47.398438 18.839844 46.9375 19.417969 L 44.875 19.011719 C 44.507812 18.941406 44.140625 19.140625 44 19.488281 L 43.875 19.800781 L 39.632812 19.800781 L 37.382812 18.027344 C 37.558594 17.679688 37.660156 17.292969 37.660156 16.882812 C 37.660156 15.476562 36.515625 14.332031 35.109375 14.332031 C 33.707031 14.332031 32.5625 15.476562 32.5625 16.882812 C 32.5625 18.285156 33.707031 19.429688 35.109375 19.429688 C 35.53125 19.429688 35.925781 19.324219 36.277344 19.144531 L 38.875 21.195312 C 39.015625 21.304688 39.183594 21.363281 39.363281 21.363281 L 43.246094 21.363281 L 42.457031 23.328125 C 42.4375 23.378906 42.425781 23.429688 42.414062 23.480469 L 32.289062 23.480469 L 30.042969 21.707031 C 30.21875 21.359375 30.316406 20.972656 30.316406 20.5625 C 30.316406 19.15625 29.175781 18.011719 27.769531 18.011719 C 26.363281 18.011719 25.222656 19.15625 25.222656 20.5625 C 25.222656 21.964844 26.363281 23.109375 27.769531 23.109375 C 28.191406 23.109375 28.585938 23.007812 28.9375 22.824219 L 31.535156 24.875 C 31.675781 24.984375 31.84375 25.042969 32.019531 25.042969 L 43.957031 25.042969 L 44.53125 25.414062 C 44.496094 25.800781 44.484375 26.1875 44.488281 26.578125 L 26.523438 26.578125 C 26.089844 26.578125 25.742188 26.929688 25.742188 27.359375 C 25.742188 27.792969 26.089844 28.140625 26.523438 28.140625 L 43.78125 28.140625 L 42.808594 28.796875 C 42.519531 28.988281 42.398438 29.347656 42.5 29.675781 L 35.753906 29.675781 C 35.578125 29.675781 35.40625 29.734375 35.269531 29.84375 L 32.667969 31.894531 C 32.320312 31.714844 31.921875 31.609375 31.503906 31.609375 C 30.097656 31.609375 28.953125 32.753906 28.953125 34.15625 C 28.953125 35.5625 30.097656 36.707031 31.503906 36.707031 C 32.90625 36.707031 34.050781 35.5625 34.050781 34.15625 C 34.050781 33.746094 33.949219 33.359375 33.777344 33.011719 L 36.023438 31.238281 L 43.160156 31.238281 L 44.148438 33.554688 C 44.292969 33.898438 44.664062 34.09375 45.03125 34.011719 L 47.085938 33.566406 C 47.382812 33.921875 47.703125 34.253906 48.042969 34.570312 L 39.351562 34.570312 C 39.175781 34.570312 39.003906 34.628906 38.867188 34.738281 L 36.011719 36.992188 C 35.671875 37.261719 35.613281 37.753906 35.878906 38.089844 C 36.035156 38.285156 36.261719 38.386719 36.492188 38.386719 C 36.664062 38.386719 36.832031 38.332031 36.976562 38.21875 L 39.621094 36.132812 L 48.460938 36.132812 L 48.257812 37.175781 C 48.1875 37.542969 48.386719 37.910156 48.734375 38.050781 L 52.570312 39.59375 C 52.667969 39.628906 52.765625 39.648438 52.863281 39.648438 C 53.121094 39.648438 53.375 39.519531 53.523438 39.289062 L 54.65625 37.519531 C 54.726562 37.527344 54.796875 37.527344 54.867188 37.535156 L 54.867188 39.40625 C 54.867188 40.414062 54.046875 41.234375 53.039062 41.234375 Z M 35.109375 17.867188 C 34.566406 17.867188 34.125 17.425781 34.125 16.882812 C 34.125 16.339844 34.566406 15.898438 35.109375 15.898438 C 35.652344 15.898438 36.09375 16.339844 36.09375 16.882812 C 36.09375 17.425781 35.652344 17.867188 35.109375 17.867188 Z M 27.765625 21.546875 C 27.222656 21.546875 26.78125 21.105469 26.78125 20.5625 C 26.78125 20.015625 27.222656 19.574219 27.765625 19.574219 C 28.308594 19.574219 28.75 20.015625 28.75 20.5625 C 28.75 21.105469 28.308594 21.546875 27.765625 21.546875 Z M 32.484375 34.15625 C 32.484375 34.703125 32.042969 35.144531 31.5 35.144531 C 30.957031 35.144531 30.515625 34.703125 30.515625 34.15625 C 30.515625 33.613281 30.957031 33.171875 31.5 33.171875 C 32.042969 33.171875 32.484375 33.613281 32.484375 34.15625 Z M 66.085938 32.128906 L 64.183594 31.757812 C 63.882812 31.699219 63.578125 31.820312 63.398438 32.0625 C 62.855469 32.808594 62.207031 33.472656 61.46875 34.03125 C 61.226562 34.214844 61.117188 34.523438 61.179688 34.820312 L 61.59375 36.71875 L 58.976562 37.832031 L 57.894531 36.222656 C 57.726562 35.96875 57.425781 35.839844 57.125 35.886719 C 56.210938 36.03125 55.28125 36.039062 54.367188 35.917969 C 54.066406 35.875 53.769531 36.011719 53.605469 36.269531 L 52.558594 37.898438 L 49.917969 36.839844 L 50.292969 34.9375 C 50.351562 34.636719 50.230469 34.332031 49.984375 34.152344 C 49.238281 33.609375 48.578125 32.960938 48.015625 32.222656 C 47.832031 31.980469 47.527344 31.867188 47.226562 31.933594 L 45.332031 32.34375 L 44.214844 29.730469 L 45.828125 28.648438 C 46.078125 28.476562 46.210938 28.175781 46.164062 27.878906 C 46.019531 26.964844 46.007812 26.035156 46.132812 25.121094 C 46.171875 24.820312 46.035156 24.523438 45.78125 24.359375 L 44.148438 23.308594 L 45.207031 20.671875 L 47.113281 21.042969 C 47.410156 21.101562 47.714844 20.984375 47.894531 20.738281 C 48.4375 19.992188 49.085938 19.328125 49.824219 18.769531 C 50.066406 18.585938 50.179688 18.277344 50.113281 17.980469 L 49.703125 16.082031 L 52.316406 14.96875 L 53.398438 16.578125 C 53.570312 16.832031 53.867188 16.960938 54.167969 16.914062 C 55.082031 16.773438 56.011719 16.761719 56.925781 16.886719 C 57.226562 16.925781 57.523438 16.789062 57.6875 16.535156 L 58.738281 14.902344 L 61.375 15.960938 L 61.003906 17.863281 C 60.945312 18.164062 61.0625 18.46875 61.308594 18.648438 C 62.054688 19.191406 62.71875 19.839844 63.277344 20.578125 C 63.460938 20.820312 63.769531 20.933594 64.066406 20.867188 L 65.964844 20.457031 L 67.078125 23.070312 L 65.46875 24.152344 C 65.214844 24.320312 65.085938 24.625 65.132812 24.921875 C 65.273438 25.835938 65.285156 26.765625 65.160156 27.679688 C 65.121094 27.980469 65.257812 28.277344 65.511719 28.441406 L 67.144531 29.492188 Z M 58.453125 19.417969 C 54.605469 17.871094 50.210938 19.742188 48.664062 23.59375 C 47.117188 27.445312 48.988281 31.835938 52.839844 33.382812 C 53.757812 33.753906 54.703125 33.925781 55.636719 33.925781 C 58.621094 33.925781 61.449219 32.140625 62.628906 29.207031 C 63.378906 27.34375 63.359375 25.296875 62.570312 23.449219 C 61.78125 21.597656 60.320312 20.167969 58.453125 19.417969 Z M 61.179688 28.625 C 59.953125 31.675781 56.472656 33.160156 53.421875 31.933594 C 50.371094 30.707031 48.886719 27.226562 50.113281 24.175781 C 51.046875 21.855469 53.289062 20.441406 55.65625 20.441406 C 56.394531 20.441406 57.144531 20.578125 57.871094 20.871094 C 59.347656 21.464844 60.507812 22.597656 61.132812 24.0625 C 61.757812 25.527344 61.773438 27.148438 61.179688 28.625 Z M 61.179688 28.625 " fill-opacity="1" fill-rule="nonzero"/></g></svg>